<svg xmlns="http://www.w3.org/2000/svg" width="109" height="218" viewBox="0 0 109 218">
  <g fill="none" fill-rule="evenodd">
    <path fill="#879CAD" fill-rule="nonzero" d="M1.00797501,17.5507398 C1.00797501,8.20982328 8.57252771,0.639999866 17.9120622,0.639999866 L91.2841296,0.639999866 C100.618914,0.639999866 108.188217,8.21425446 108.188217,17.5507398 L108.188217,200.44926 C108.188217,209.790177 100.623664,217.36 91.2841296,217.36 L17.9120622,217.36 C8.57727741,217.36 1.00797501,209.785746 1.00797501,200.44926 L1.00797501,17.5507398 Z"/>
    <path fill="#FFFFFF" d="M3.36797515,17.5507398 L3.36797515,200.44926 C3.36797515,208.481267 9.87958472,215 17.9120622,215 L91.2841296,215 C99.3216432,215 105.828217,208.485412 105.828217,200.44926 L105.828217,17.5507398 C105.828217,9.5187325 99.3166071,3 91.2841296,3 L17.9120622,3 C9.87454856,3 3.36797515,9.51458809 3.36797515,17.5507398 Z"/>
    <path fill="#879CAD" fill-rule="nonzero" d="M54.7660635,210.718356 C49.8852581,210.718356 45.9296183,206.749673 45.9296183,201.855326 C45.9296183,196.960979 49.8852581,192.992296 54.7660635,192.992296 C59.6468689,192.992296 63.6025087,196.960979 63.6025087,201.855326 C63.6025087,206.749673 59.6468689,210.718356 54.7660635,210.718356 Z M54.7660635,209.170356 C58.7907892,209.170356 62.0545087,205.895875 62.0545087,201.855326 C62.0545087,197.814777 58.7907892,194.540296 54.7660635,194.540296 C50.7413378,194.540296 47.4776183,197.814777 47.4776183,201.855326 C47.4776183,205.895875 50.7413378,209.170356 54.7660635,209.170356 Z"/>
    <rect width="92.718" height="162.455" x="8.071" y="27.267" fill="#FFFFFF"/>
    <rect width="1.344" height="8.763" x="1" y="29.626" fill="#879CAD"/>
    <rect width="1.344" height="16.178" y="47.49" fill="#879CAD"/>
    <rect width="1.344" height="16.178" x="107.517" y="47.49" fill="#879CAD"/>
    <ellipse cx="54.43" cy="8.393" fill="#879CAD" rx="1.344" ry="1.348"/>
    <ellipse cx="37.969" cy="14.459" fill="#879CAD" rx="1.68" ry="1.685"/>
    <rect width="17.805" height="2.359" x="46.032" y="13.448" fill="#879CAD" rx="1.18"/>
    <rect width="1.344" height="16.178" y="66.027" fill="#879CAD"/>
  </g>
</svg>
