<?xml version="1.0" encoding="UTF-8"?>
<svg width="14px" height="14px" viewBox="0 0 14 14" version="1.1" xmlns="http://www.w3.org/2000/svg" xmlns:xlink="http://www.w3.org/1999/xlink">
    <!-- Generator: Sketch 48 (47235) - http://www.bohemiancoding.com/sketch -->
    <title>Icon/link</title>
    <desc>Created with Sketch.</desc>
    <defs></defs>
    <g id="Icon/link" stroke="none" stroke-width="1" fill="none" fill-rule="evenodd">
        <g fill="#0F95FC">
            <path d="M13.328,13.44 C13.7312,13.44 14,13.1662222 14,12.7555556 L14,9.33333333 L12.656,9.33333333 L12.656,12.0711111 L1.92700778,12.0711111 L1.92700778,1.38724231 L4.66478556,1.38724231 L4.66478556,0.0432423101 L1.24256334,0.0432423101 C0.831896669,0.0432423101 0.558118892,0.31204231 0.558118892,0.71524231 L0.558118892,12.8112423 C0.558118892,13.2144423 0.831896669,13.4832423 1.24256334,13.4832423 L4.66478556,13.4832423 L4.66478556,13.44 L13.328,13.44 Z" id="Combined-Shape"></path>
            <path d="M7.7895163,0.79167293 C7.78599648,1.17533336 8.07110193,1.46043881 8.45476236,1.45691899 L11.6199609,1.42788047 L7.45777322,5.59006812 C7.16738804,5.8804533 7.16386822,6.26411373 7.44897367,6.54921918 C7.73407912,6.83432464 8.11773955,6.83080482 8.40812474,6.54041963 L12.5703124,2.37823198 L12.5412739,5.5434305 C12.537754,5.92709093 12.8228595,6.21219638 13.2065199,6.20867656 C13.5901804,6.20515674 13.8805655,5.91477155 13.8840854,5.53111113 L13.9280831,0.735355803 C13.9316029,0.351695377 13.6464975,0.0665899228 13.2628371,0.0701097432 L8.46708173,0.114107498 C8.0834213,0.117627319 7.79303612,0.408012504 7.7895163,0.79167293 L7.7895163,0.79167293 L7.7895163,0.79167293 Z" id="Shape"></path>
        </g>
    </g>
</svg>