<?xml version="1.0" encoding="UTF-8" standalone="no"?>
<svg width="180px" height="28px" viewBox="0 0 180 28" version="1.1" xmlns="http://www.w3.org/2000/svg" xmlns:xlink="http://www.w3.org/1999/xlink">
    <!-- Generator: Sketch 39.1 (31720) - http://www.bohemiancoding.com/sketch -->
    <title>logo</title>
    <desc>Created with Sketch.</desc>
    <defs></defs>
    <g id="00_dashboard" stroke="none" stroke-width="1" fill="none" fill-rule="evenodd">
        <g transform="translate(-35.000000, -38.000000)" id="logo" fill="#234361">
            <g transform="translate(35.000000, 38.000000)">
                <path d="M13.2418576,10.8131337 C13.7247673,9.57972243 15.6898948,4.65395179 15.9156099,4.06910153 C16.1714649,3.40550767 16.1567298,2.27374726 15.3811273,1.26010226 C14.6055248,0.246457268 9.29217906,1.21929876 9.29217906,1.21929876 C9.16559109,1.24077429 8.99077913,1.34958364 8.90571738,1.46054054 L2.58636562,9.72718773 C2.58636562,9.72718773 -0.299706107,13.5899196 0.204636434,18.1198247 C0.708978975,22.6504456 5.21993118,23.7070416 7.80393321,23.7070416 C14.9852888,24.2310446 16.4521017,19.1699781 15.9162796,15.3788313 C15.6577455,13.5462527 14.5070675,11.8468225 13.2425274,10.8131337 L13.2418576,10.8131337 Z M9.02225868,3.24372535 L9.52392211,2.53288532 C9.5721461,2.46487947 9.67730119,2.40116874 9.7576745,2.39257852 C9.7576745,2.39257852 10.1682482,2.34533236 10.7248334,2.29737034 C11.2814186,2.24940833 12.0858215,2.28734843 12.0858215,2.28734843 C12.2485774,2.29235939 12.310197,2.41620161 12.2251352,2.56295106 L11.7683469,3.34680789 C11.7261509,3.41910884 11.6256843,3.47566107 11.5446412,3.47208181 C11.5446412,3.47208181 10.4147263,3.43271001 10.2231699,3.43271001 L9.1113391,3.43271001 C8.9887698,3.43271001 8.9499227,3.34895544 9.02292846,3.24515705 L9.02225868,3.24372535 Z M11.7817424,22.105683 C10.5359561,22.105683 8.46634327,21.1793718 8.46634327,16.4805259 C8.46634327,11.7816801 14.2492032,1.85712199 14.2492032,1.85712199 C14.4561644,1.48989043 14.8265515,1.58438276 15.0040425,1.8700073 C15.1353189,2.08118335 15.2893678,2.55149744 15.3329033,2.82924763 C15.355006,2.97170197 15.3275451,3.22797663 15.2753025,3.36112491 L12.2351819,11.0071293 C12.2351819,11.0071293 15.1567518,12.5519357 15.2377949,16.3387874 C15.318838,20.1270709 13.0275288,22.1049671 11.7817424,22.1049671 L11.7817424,22.105683 Z" id="Shape"></path>
                <path d="M125.099269,18.0280538 C124.797527,18.5332921 124.432927,19.0104544 124.005458,19.4595551 C123.57799,19.9086558 123.083474,20.3016131 122.521898,20.6384386 C121.960322,20.9752641 121.340082,21.2419137 120.661162,21.4383952 C119.982241,21.6348768 119.240468,21.7331161 118.435822,21.7331161 C117.094744,21.7331161 115.854265,21.4711446 114.714349,20.9471938 C113.574433,20.4232429 112.593784,19.6981433 111.772374,18.7718731 C110.950963,17.8456029 110.30977,16.7462583 109.848775,15.4738063 C109.387779,14.2013542 109.157285,12.8072917 109.157285,11.2915768 C109.157285,9.77586192 109.39197,8.38179939 109.861347,7.10934738 C110.330724,5.83689537 110.980299,4.73755075 111.810091,3.81128054 C112.639883,2.88501033 113.620532,2.15991068 114.752066,1.63595986 C115.883601,1.11200903 117.111507,0.850037547 118.435822,0.850037547 C119.089597,0.850037547 119.73079,0.924886542 120.359421,1.07458678 C120.988051,1.22428701 121.578955,1.43479981 122.132149,1.70613149 C122.685344,1.97746317 123.188241,2.30492753 123.640854,2.68853438 C124.093468,3.07214124 124.470641,3.50720102 124.772383,3.99372679 L123.263678,5.22874756 C123.07928,4.91063456 122.832022,4.59252633 122.521898,4.27441333 C122.211774,3.95630033 121.847174,3.67561659 121.428087,3.43235371 C121.009,3.18909083 120.552202,2.99261221 120.05768,2.84291198 C119.563157,2.69321174 119.030925,2.61836275 118.460967,2.61836275 C117.304287,2.61836275 116.269158,2.85226586 115.355548,3.32007909 C114.441939,3.78789233 113.66664,4.41943073 113.029628,5.21471324 C112.392616,6.00999574 111.906483,6.931574 111.571213,7.97947565 C111.235944,9.0273773 111.068311,10.1314 111.068311,11.2915768 C111.068311,12.4517536 111.240134,13.5557763 111.583786,14.603678 C111.927437,15.6515796 112.417761,16.5731579 113.054773,17.3684404 C113.691785,18.1637229 114.467084,18.7952613 115.380694,19.2630745 C116.294303,19.7308878 117.32105,19.9647909 118.460967,19.9647909 C119.483539,19.9647909 120.455806,19.7308878 121.377797,19.2630745 C122.299788,18.7952613 123.070896,18.0467713 123.691145,17.0175822 L125.099269,18.0280538 Z M139.809145,14.6598153 C139.809145,15.6515794 139.654085,16.5684795 139.343961,17.4105434 C139.033836,18.2526072 138.602183,18.9823849 138.048989,19.5998984 C137.495794,20.2174119 136.833647,20.6992523 136.062527,21.0454341 C135.291407,21.3916159 134.444864,21.5647042 133.522873,21.5647042 C132.617646,21.5647042 131.779484,21.3916159 131.008365,21.0454341 C130.237245,20.6992523 129.575097,20.2174119 129.021903,19.5998984 C128.468708,18.9823849 128.037055,18.2526072 127.726931,17.4105434 C127.416807,16.5684795 127.261747,15.6515794 127.261747,14.6598153 C127.261747,13.6680512 127.416807,12.751151 127.726931,11.9090872 C128.037055,11.0670234 128.468708,10.3372457 129.021903,9.7197322 C129.575097,9.10221872 130.237245,8.62037831 131.008365,8.27419652 C131.779484,7.92801472 132.617646,7.75492642 133.522873,7.75492642 C134.444864,7.75492642 135.291407,7.92801472 136.062527,8.27419652 C136.833647,8.62037831 137.495794,9.10221872 138.048989,9.7197322 C138.602183,10.3372457 139.033836,11.0670234 139.343961,11.9090872 C139.654085,12.751151 139.809145,13.6680512 139.809145,14.6598153 Z M137.998699,14.6598153 C137.998699,13.9300266 137.893928,13.2423515 137.684385,12.5967692 C137.474841,11.951187 137.177294,11.3898195 136.791734,10.91265 C136.406174,10.4354805 135.936804,10.0565574 135.38361,9.7758695 C134.830415,9.49518156 134.210176,9.35483969 133.522873,9.35483969 C132.835571,9.35483969 132.219522,9.49518156 131.674709,9.7758695 C131.129896,10.0565574 130.664717,10.4354805 130.279157,10.91265 C129.893597,11.3898195 129.59605,11.951187 129.386507,12.5967692 C129.176963,13.2423515 129.072193,13.9300266 129.072193,14.6598153 C129.072193,15.3896039 129.176963,16.0772791 129.386507,16.7228614 C129.59605,17.3684436 129.893597,17.9298111 130.279157,18.4069806 C130.664717,18.8841501 131.129896,19.2583951 131.674709,19.5297268 C132.219522,19.8010584 132.835571,19.9367222 133.522873,19.9367222 C134.210176,19.9367222 134.830415,19.8010584 135.38361,19.5297268 C135.936804,19.2583951 136.406174,18.8841501 136.791734,18.4069806 C137.177294,17.9298111 137.474841,17.3684436 137.684385,16.7228614 C137.893928,16.0772791 137.998699,15.3896039 137.998699,14.6598153 Z M150.898128,12.7511468 C150.898128,11.6096825 150.629916,10.7582752 150.093485,10.1968993 C149.557054,9.63552343 148.777564,9.35483969 147.754992,9.35483969 C147.050926,9.35483969 146.39716,9.49518156 145.793675,9.7758695 C145.19019,10.0565574 144.678912,10.4308024 144.259825,10.8986157 L143.304312,9.63552623 C143.790452,9.09286288 144.431646,8.64376891 145.227911,8.28823084 C146.024176,7.93269278 146.925199,7.75492642 147.931008,7.75492642 C148.56802,7.75492642 149.163114,7.85316573 149.716309,8.04964729 C150.269503,8.24612885 150.755637,8.54084676 151.174724,8.93380988 C151.59381,9.32677301 151.920693,9.8226476 152.155382,10.4214485 C152.390071,11.0202495 152.507413,11.7219588 152.507413,12.5265976 L152.507413,18.2806717 C152.507413,18.7859099 152.524176,19.3098529 152.557703,19.8525163 C152.59123,20.3951796 152.64152,20.8536297 152.708574,21.2278803 L151.174724,21.2278803 C151.124433,20.9097673 151.082525,20.5635907 151.048998,20.1893401 C151.015471,19.8150895 150.998708,19.4502007 150.998708,19.0946626 L150.948418,19.0946626 C150.411987,19.9741515 149.80432,20.6056899 149.125399,20.9892968 C148.446478,21.3729036 147.629271,21.5647042 146.673753,21.5647042 C146.221139,21.5647042 145.75596,21.4945332 145.278201,21.3541893 C144.800442,21.2138453 144.364598,20.9846202 143.970656,20.6665072 C143.576715,20.3483942 143.249832,19.9367248 142.989998,19.4314865 C142.730164,18.9262482 142.600249,18.308744 142.600249,17.5789553 C142.600249,16.5684787 142.830744,15.7685301 143.291739,15.1790854 C143.752735,14.5896407 144.368783,14.1499029 145.139903,13.8598587 C145.911023,13.5698144 146.795283,13.382692 147.79271,13.2984856 C148.790136,13.2142792 149.825265,13.1721766 150.898128,13.1721766 L150.898128,12.7511468 Z M150.395226,14.6598153 C149.69116,14.6598153 148.982914,14.6925617 148.270466,14.7580556 C147.558019,14.8235494 146.912634,14.9545352 146.334295,15.1510167 C145.755955,15.3474983 145.282394,15.6328601 144.913597,16.0071107 C144.544801,16.3813613 144.360405,16.8772359 144.360405,17.4947493 C144.360405,17.9625626 144.440031,18.3555198 144.599284,18.6736328 C144.758537,18.9917458 144.972268,19.2490392 145.240483,19.4455208 C145.508699,19.6420024 145.806246,19.7823442 146.133134,19.8665506 C146.460022,19.950757 146.791095,19.9928595 147.126365,19.9928595 C147.72985,19.9928595 148.266273,19.875908 148.73565,19.6420014 C149.205028,19.4080947 149.598963,19.0899865 149.917469,18.6876671 C150.235975,18.2853477 150.479042,17.8222196 150.646677,17.2982688 C150.814312,16.7743179 150.898128,16.2223066 150.898128,15.6422182 L150.898128,14.6598153 L150.395226,14.6598153 Z M165.381697,11.0950962 C165.096718,10.5898579 164.681828,10.1735104 164.137015,9.84604114 C163.592203,9.51857187 163.001299,9.35483969 162.364287,9.35483969 C161.676984,9.35483969 161.056745,9.4905035 160.503551,9.76183518 C159.950356,10.0331669 159.476795,10.4074118 159.082853,10.8845813 C158.688912,11.3617508 158.387174,11.9231183 158.17763,12.5687006 C157.968087,13.2142828 157.863317,13.9113141 157.863317,14.6598153 C157.863317,15.4083165 157.968087,16.1006697 158.17763,16.7368957 C158.387174,17.3731217 158.684721,17.9298111 159.070281,18.4069806 C159.455841,18.8841501 159.925211,19.2583951 160.478405,19.5297268 C161.0316,19.8010584 161.651839,19.9367222 162.339142,19.9367222 C163.093498,19.9367222 163.730501,19.7776681 164.250168,19.4595551 C164.769836,19.1414421 165.197298,18.7297726 165.532568,18.2245343 L166.814967,19.2911432 C166.312063,19.9835068 165.696014,20.5355181 164.966803,20.9471938 C164.237592,21.3588694 163.361714,21.5647042 162.339142,21.5647042 C161.383624,21.5647042 160.520318,21.3916159 159.749198,21.0454341 C158.978078,20.6992523 158.320122,20.2174119 157.775309,19.5998984 C157.230496,18.9823849 156.807224,18.2526072 156.505482,17.4105434 C156.203739,16.5684795 156.05287,15.6515794 156.05287,14.6598153 C156.05287,13.6680512 156.203739,12.751151 156.505482,11.9090872 C156.807224,11.0670234 157.230496,10.3372457 157.775309,9.7197322 C158.320122,9.10221872 158.978078,8.62037831 159.749198,8.27419652 C160.520318,7.92801472 161.383624,7.75492642 162.339142,7.75492642 C163.127025,7.75492642 163.927469,7.94672697 164.740498,8.33033382 C165.553526,8.71394068 166.211483,9.27998621 166.714387,10.0284874 L165.381697,11.0950962 Z M171.290792,10.2530366 C171.609298,9.48582291 172.13734,8.87767482 172.874933,8.42857411 C173.612526,7.97947341 174.400397,7.75492642 175.238571,7.75492642 C176.73052,7.75492642 177.849465,8.25080101 178.59544,9.24256508 C179.341415,10.2343291 179.714396,11.5441866 179.714396,13.1721766 L179.714396,21.2278803 L178.00453,21.2278803 L178.00453,13.9580989 C178.00453,13.2657353 177.954241,12.638875 177.85366,12.0774991 C177.753079,11.5161232 177.581256,11.0342828 177.338186,10.6319634 C177.095115,10.2296441 176.768232,9.9162139 176.357527,9.69166354 C175.946822,9.46711319 175.431353,9.35483969 174.811105,9.35483969 C174.358491,9.35483969 173.918456,9.45775706 173.490988,9.66359489 C173.063519,9.86943271 172.682156,10.1828629 172.346886,10.6038948 C172.011617,11.0249267 171.743405,11.5582258 171.542243,12.2038081 C171.341082,12.8493903 171.240502,13.6119145 171.240502,14.4914034 L171.240502,21.2278803 L169.530636,21.2278803 L169.530636,0.00797792801 L171.240502,0.00797792801 L171.240502,10.2530366 L171.290792,10.2530366 Z" id="rankingCoach"></path>
                <path d="M23.3119609,10.9828216 C23.3119609,10.6272836 23.3035793,10.1688335 23.2868158,9.60745758 C23.2700523,9.04608169 23.2449075,8.54085098 23.2113806,8.09175027 L24.8458111,8.09175027 C24.8793381,8.44728833 24.9044829,8.84024555 24.9212464,9.27063373 C24.9380099,9.70102191 24.9463915,10.0565546 24.9463915,10.3372426 L24.9966817,10.3372426 C25.3319512,9.57002887 25.8348478,8.9478466 26.5053868,8.47067709 C27.1759258,7.99350759 27.9302708,7.75492642 28.7684446,7.75492642 C28.9863697,7.75492642 29.1833376,7.76428254 29.3593541,7.78299507 C29.5353706,7.8017076 29.7155752,7.8391321 29.8999734,7.89526969 L29.6736677,9.69166354 C29.5730868,9.65423848 29.4054546,9.61681398 29.170766,9.57938893 C28.9360773,9.54196387 28.7013922,9.52325162 28.4667035,9.52325162 C28.0140897,9.52325162 27.5782459,9.61681286 27.1591591,9.80393816 C26.7400722,9.99106345 26.3754721,10.2857814 26.0653478,10.6881008 C25.7552235,11.0904201 25.5037752,11.605007 25.3109952,12.2318767 C25.1182153,12.8587465 25.0218267,13.6119145 25.0218267,14.4914034 L25.0218267,21.2278803 L23.3119609,21.2278803 L23.3119609,10.9828216 Z M39.7819923,12.7511468 C39.7819923,11.6096825 39.5137807,10.7582752 38.9773495,10.1968993 C38.4409183,9.63552343 37.6614285,9.35483969 36.6388565,9.35483969 C35.9347906,9.35483969 35.2810249,9.49518156 34.6775398,9.7758695 C34.0740547,10.0565574 33.5627764,10.4308024 33.1436896,10.8986157 L32.1881763,9.63552623 C32.674317,9.09286288 33.3155103,8.64376891 34.1117754,8.28823084 C34.9080404,7.93269278 35.8090636,7.75492642 36.8148721,7.75492642 C37.4518842,7.75492642 38.0469786,7.85316573 38.6001732,8.04964729 C39.1533679,8.24612885 39.6395014,8.54084676 40.0585882,8.93380988 C40.4776751,9.32677301 40.8045579,9.8226476 41.0392466,10.4214485 C41.2739352,11.0202495 41.3912778,11.7219588 41.3912778,12.5265976 L41.3912778,18.2806717 C41.3912778,18.7859099 41.408041,19.3098529 41.441568,19.8525163 C41.4750949,20.3951796 41.5253846,20.8536297 41.5924385,21.2278803 L40.0585882,21.2278803 C40.0082978,20.9097673 39.9663897,20.5635907 39.9328628,20.1893401 C39.8993358,19.8150895 39.8825726,19.4502007 39.8825726,19.0946626 L39.8322825,19.0946626 C39.2958513,19.9741515 38.6881844,20.6056899 38.0092637,20.9892968 C37.330343,21.3729036 36.5131359,21.5647042 35.5576178,21.5647042 C35.105004,21.5647042 34.6398246,21.4945332 34.1620655,21.3541893 C33.6843065,21.2138453 33.2484627,20.9846202 32.8545211,20.6665072 C32.4605794,20.3483942 32.1336966,19.9367248 31.8738627,19.4314865 C31.6140289,18.9262482 31.4841139,18.308744 31.4841139,17.5789553 C31.4841139,16.5684787 31.7146082,15.7685301 32.1756037,15.1790854 C32.6365993,14.5896407 33.2526477,14.1499029 34.0237676,13.8598587 C34.7948874,13.5698144 35.6791474,13.382692 36.6765741,13.2984856 C37.6740009,13.2142792 38.7091299,13.1721766 39.7819923,13.1721766 L39.7819923,12.7511468 Z M39.2790906,14.6598153 C38.5750246,14.6598153 37.8667785,14.6925617 37.1543308,14.7580556 C36.4418831,14.8235494 35.796499,14.9545352 35.2181592,15.1510167 C34.6398193,15.3474983 34.1662582,15.6328601 33.7974618,16.0071107 C33.4286654,16.3813613 33.2442699,16.8772359 33.2442699,17.4947493 C33.2442699,17.9625626 33.3238952,18.3555198 33.4831482,18.6736328 C33.6424012,18.9917458 33.8561323,19.2490392 34.1243479,19.4455208 C34.3925635,19.6420024 34.6901107,19.7823442 35.0169985,19.8665506 C35.3438862,19.950757 35.6749599,19.9928595 36.0102294,19.9928595 C36.6137144,19.9928595 37.1501376,19.875908 37.6195149,19.6420014 C38.0888922,19.4080947 38.4828279,19.0899865 38.8013339,18.6876671 C39.1198399,18.2853477 39.3629067,17.8222196 39.5305414,17.2982688 C39.6981762,16.7743179 39.7819923,16.2223066 39.7819923,15.6422182 L39.7819923,14.6598153 L39.2790906,14.6598153 Z M47.3255181,8.09175027 C47.3590451,8.44728833 47.3841899,8.84024555 47.4009534,9.27063373 C47.4177168,9.70102191 47.4260984,10.0565546 47.4260984,10.3372426 L47.4763886,10.3372426 C47.8116581,9.57002887 48.3564629,8.9478466 49.1108192,8.47067709 C49.8651756,7.99350759 50.6614287,7.75492642 51.4996024,7.75492642 C52.9915516,7.75492642 54.1104968,8.25080101 54.8564714,9.24256508 C55.602446,10.2343291 55.9754277,11.5441866 55.9754277,13.1721766 L55.9754277,21.2278803 L54.2655619,21.2278803 L54.2655619,13.9580989 C54.2655619,13.2657353 54.2152722,12.638875 54.1146913,12.0774991 C54.0141105,11.5161232 53.8422875,11.0342828 53.5992171,10.6319634 C53.3561467,10.2296441 53.0292638,9.9162139 52.6185587,9.69166354 C52.2078536,9.46711319 51.6923845,9.35483969 51.0721359,9.35483969 C50.6195221,9.35483969 50.1794875,9.45775706 49.7520189,9.66359489 C49.3245503,9.86943271 48.943187,10.1828629 48.6079175,10.6038948 C48.272648,11.0249267 48.0044364,11.5582258 47.8032747,12.2038081 C47.602113,12.8493903 47.5015337,13.6119145 47.5015337,14.4914034 L47.5015337,21.2278803 L45.7916679,21.2278803 L45.7916679,10.9828216 C45.7916679,10.6272836 45.7832862,10.1688335 45.7665228,9.60745758 C45.7497593,9.04608169 45.7246145,8.54085098 45.6910875,8.09175027 L47.3255181,8.09175027 Z M62.1611189,14.0142363 L62.2365541,14.0142363 L67.6678927,8.09175027 L70.1321112,8.09175027 L64.1978709,14.0984422 L70.7355932,21.2278803 L68.2210846,21.2278803 L62.2365541,14.3229914 L62.1611189,14.3229914 L62.1611189,21.2278803 L60.451253,21.2278803 L60.451253,0.00797792801 L62.1611189,0.00797792801 L62.1611189,14.0142363 Z M74.9599677,21.2278803 L73.2501019,21.2278803 L73.2501019,8.09175027 L74.9599677,8.09175027 L74.9599677,21.2278803 Z M75.3119989,3.03939255 C75.3119989,3.43235568 75.1862747,3.75514197 74.9348226,4.00776112 C74.6833705,4.26038026 74.4067773,4.38668794 74.1050348,4.38668794 C73.8032922,4.38668794 73.5266991,4.26038026 73.2752469,4.00776112 C73.0237948,3.75514197 72.8980706,3.43235568 72.8980706,3.03939255 C72.8980706,2.64642943 73.0237948,2.32364314 73.2752469,2.07102399 C73.5266991,1.81840484 73.8032922,1.69209717 74.1050348,1.69209717 C74.4067773,1.69209717 74.6833705,1.81840484 74.9348226,2.07102399 C75.1862747,2.32364314 75.3119989,2.64642943 75.3119989,3.03939255 Z M81.0450785,8.09175027 C81.0786055,8.44728833 81.1037503,8.84024555 81.1205138,9.27063373 C81.1372773,9.70102191 81.1456589,10.0565546 81.1456589,10.3372426 L81.1959491,10.3372426 C81.5312185,9.57002887 82.0760233,8.9478466 82.8303796,8.47067709 C83.584736,7.99350759 84.3809891,7.75492642 85.2191628,7.75492642 C86.7111121,7.75492642 87.8300572,8.25080101 88.5760318,9.24256508 C89.3220064,10.2343291 89.6949881,11.5441866 89.6949881,13.1721766 L89.6949881,21.2278803 L87.9851223,21.2278803 L87.9851223,13.9580989 C87.9851223,13.2657353 87.9348326,12.638875 87.8342518,12.0774991 C87.7336709,11.5161232 87.5618479,11.0342828 87.3187775,10.6319634 C87.0757071,10.2296441 86.7488243,9.9162139 86.3381192,9.69166354 C85.927414,9.46711319 85.4119449,9.35483969 84.7916964,9.35483969 C84.3390825,9.35483969 83.8990479,9.45775706 83.4715793,9.66359489 C83.0441107,9.86943271 82.6627474,10.1828629 82.3274779,10.6038948 C81.9922084,11.0249267 81.7239969,11.5582258 81.5228352,12.2038081 C81.3216735,12.8493903 81.2210941,13.6119145 81.2210941,14.4914034 L81.2210941,21.2278803 L79.5112283,21.2278803 L79.5112283,10.9828216 C79.5112283,10.6272836 79.5028467,10.1688335 79.4860832,9.60745758 C79.4693197,9.04608169 79.4441749,8.54085098 79.4106479,8.09175027 L81.0450785,8.09175027 Z M94.7491504,23.8663338 C95.2185277,24.5399849 95.859721,25.1107084 96.6727495,25.5785217 C97.485778,26.0463349 98.3448932,26.280238 99.2501209,26.280238 C100.088295,26.280238 100.800732,26.1445742 101.387453,25.8732425 C101.974175,25.6019109 102.447736,25.232344 102.808151,24.7645307 C103.168565,24.2967175 103.432586,23.7493842 103.600221,23.1225145 C103.767855,22.4956447 103.851672,21.8266818 103.851672,21.1156057 L103.851672,18.6455642 L103.801381,18.6455642 C103.348768,19.4689155 102.707574,20.1051319 101.877782,20.5542326 C101.04799,21.0033333 100.205638,21.2278803 99.3507012,21.2278803 C98.4287101,21.2278803 97.5947398,21.0594701 96.8487651,20.7226445 C96.1027905,20.385819 95.465788,19.9226909 94.9377386,19.3332462 C94.4096891,18.7438015 93.9989902,18.0374141 93.7056294,17.2140628 C93.4122686,16.3907115 93.2655904,15.5018797 93.2655904,14.5475407 C93.2655904,13.6119142 93.4122686,12.7324385 93.7056294,11.9090872 C93.9989902,11.0857359 94.4096891,10.3653143 94.9377386,9.74780085 C95.465788,9.13028738 96.1027905,8.64376891 96.8487651,8.28823084 C97.5947398,7.93269278 98.4287101,7.75492642 99.3507012,7.75492642 C100.205638,7.75492642 101.0438,7.97947341 101.86521,8.42857411 C102.68662,8.87767482 103.332004,9.52324741 103.801381,10.3653112 L103.851672,10.3653112 L103.851672,8.09175027 L105.561537,8.09175027 L105.561537,21.1156057 C105.561537,21.8266818 105.473531,22.5845279 105.297514,23.3891667 C105.121498,24.1938054 104.794615,24.9329393 104.316856,25.6065903 C103.839097,26.2802414 103.189522,26.8416089 102.368112,27.2907096 C101.546701,27.7398103 100.482237,27.9643573 99.1746856,27.9643573 C98.0850598,27.9643573 97.0457399,27.7304542 96.0566949,27.2626409 C95.0676499,26.7948277 94.2211072,26.1492551 93.5170412,25.3259038 L94.7491504,23.8663338 Z M95.0760366,14.4914034 C95.0760366,15.183767 95.1766159,15.8386957 95.3777776,16.4562091 C95.5789393,17.0737226 95.8681049,17.6163778 96.2452831,18.0841911 C96.6224612,18.5520043 97.0876407,18.9215712 97.6408353,19.1929029 C98.19403,19.4642346 98.8226509,19.5998984 99.5267168,19.5998984 C100.180492,19.5998984 100.783968,19.4782688 101.337163,19.2350059 C101.890358,18.991743 102.36811,18.6455664 102.770433,18.1964657 C103.172756,17.747365 103.487067,17.2093878 103.713374,16.5825181 C103.939681,15.9556483 104.052832,15.2586171 104.052832,14.4914034 C104.052832,13.7990398 103.939681,13.1441111 103.713374,12.5265976 C103.487067,11.9090841 103.172756,11.3664289 102.770433,10.8986157 C102.36811,10.4308024 101.890358,10.0565574 101.337163,9.7758695 C100.783968,9.49518156 100.180492,9.35483969 99.5267168,9.35483969 C98.8226509,9.35483969 98.19403,9.49518156 97.6408353,9.7758695 C97.0876407,10.0565574 96.6224612,10.4308024 96.2452831,10.8986157 C95.8681049,11.3664289 95.5789393,11.9090841 95.3777776,12.5265976 C95.1766159,13.1441111 95.0760366,13.7990398 95.0760366,14.4914034 Z" id="rankingCoach-copy"></path>
            </g>
        </g>
    </g>
</svg>