<svg xmlns="http://www.w3.org/2000/svg" width="521" height="302" viewBox="0 0 521 302">
  <g fill="none" fill-rule="evenodd">
    <path fill="#879CAF" fill-rule="nonzero" d="M50.6162616,283.6114 C50.6162616,290.595609 56.3037755,296.262867 63.3157853,296.262867 L458.567889,296.262867 C465.583874,296.262867 471.267412,290.599706 471.267412,283.6114 L471.267412,16.1583162 C471.267412,9.17410689 465.579898,3.50684932 458.567889,3.50684932 L63.3157853,3.50684932 C56.2997998,3.50684932 50.6162616,9.17001021 50.6162616,16.1583162 L50.6162616,283.6114 Z"/>
    <path fill="#FFFFFF" d="M49.602563,283.6114 L49.602563,16.1583162 C49.602563,8.60934325 55.740763,2.49315068 63.3157853,2.49315068 L458.567889,2.49315068 C466.138941,2.49315068 472.281111,8.61344536 472.281111,16.1583162 L472.281111,283.6114 C472.281111,291.160373 466.142911,297.276565 458.567889,297.276565 L63.3157853,297.276565 C55.7447333,297.276565 49.602563,291.156271 49.602563,283.6114 Z"/>
    <path fill="#879CAF" fill-rule="nonzero" d="M63.3157853,3.94006309 C56.5409062,3.94006309 51.0527341,9.40921543 51.0527341,16.1583162 L51.0527341,283.6114 C51.0527341,290.35626 56.5447379,295.829653 63.3157853,295.829653 L458.567889,295.829653 C465.342768,295.829653 470.83094,290.360501 470.83094,283.6114 L470.83094,16.1583162 C470.83094,9.41345563 465.338936,3.94006309 458.567889,3.94006309 L63.3157853,3.94006309 Z M63.3157853,0.898967201 L458.567889,0.898967201 C467.015553,0.898967201 473.872036,7.73096303 473.872036,16.1583162 L473.872036,283.6114 C473.872036,292.042864 467.019515,298.870749 458.567889,298.870749 L63.3157853,298.870749 C54.8681209,298.870749 48.0116383,292.038753 48.0116383,283.6114 L48.0116383,16.1583162 C48.0116383,7.72685235 54.864159,0.898967201 63.3157853,0.898967201 Z"/>
    <path fill="#879CAE" fill-rule="nonzero" d="M260.941837,17.012781 C259.626755,17.012781 258.558711,15.9551376 258.558711,14.6480263 C258.558711,13.340915 259.626755,12.2832716 260.941837,12.2832716 C262.256919,12.2832716 263.324963,13.340915 263.324963,14.6480263 C263.324963,15.9551376 262.256919,17.012781 260.941837,17.012781 Z M260.941837,16.0198171 C261.710684,16.0198171 262.331999,15.404552 262.331999,14.6480263 C262.331999,13.8915005 261.710684,13.2762355 260.941837,13.2762355 C260.17299,13.2762355 259.551675,13.8915005 259.551675,14.6480263 C259.551675,15.404552 260.17299,16.0198171 260.941837,16.0198171 Z"/>
    <rect width="393.365" height="244.886" x="64.259" y="25.091" fill="#FFFFFF"/>
    <path fill="#FFFFFF" d="M4.82996543,291.481569 C4.82996543,290.508263 5.62693189,289.719243 6.59676028,289.719243 L515.309446,289.719243 C516.28522,289.719243 517.076241,290.511697 517.076241,291.481569 L517.076241,292.170026 C517.076241,293.143332 516.286055,294.041371 515.316611,294.173486 C515.316611,294.173486 482.881762,298.707945 466.69487,299.123147 C396.929054,300.912676 256.661704,300.612121 256.661704,300.612121 C256.661704,300.612121 121.25547,300.398426 53.7888176,298.608891 C38.1628473,298.194417 6.56870707,294.150627 6.56870707,294.150627 C5.60842658,294.030077 4.82996543,293.139899 4.82996543,292.170026 L4.82996543,291.481569 Z"/>
    <path fill="#879CAE" fill-rule="nonzero" d="M5.84366406,291.481569 L5.84366406,292.170026 C5.84366406,292.631393 6.24424419,293.08824 6.69740228,293.145131 C6.76512486,293.153799 6.76512486,293.153799 7.09340679,293.195365 C7.41855049,293.236415 7.79864295,293.284046 8.23028353,293.337708 C9.46391756,293.491076 10.8629535,293.661991 12.4001815,293.846065 C16.7924583,294.372014 21.4112052,294.897967 26.0385883,295.38881 C28.9721905,295.699987 31.8183521,295.987163 34.546221,296.245372 C42.4615599,296.994607 49.0376997,297.468814 53.8156962,297.595549 C74.4672754,298.143327 102.691541,298.577942 136.590362,298.912015 C162.856072,299.170864 190.998347,299.355035 219.140685,299.477092 C228.990552,299.519812 238.136842,299.551716 246.345013,299.574375 C249.217836,299.582306 251.768179,299.588514 253.966724,299.593197 C254.736191,299.594836 255.406715,299.596167 255.974631,299.597215 C257.544582,299.600131 257.544582,299.600131 258.273855,299.601393 C259.593908,299.603619 261.138737,299.605846 262.895254,299.607924 C298.636463,299.65021 340.734582,299.576615 380.901799,299.293155 C416.044339,299.045154 445.291518,298.658122 466.668877,298.109781 C471.589486,297.983565 478.326971,297.468282 486.419076,296.644125 C489.324468,296.34822 492.359201,296.01692 495.488109,295.656458 C500.210711,295.112398 504.915003,294.529416 509.381805,293.94644 C510.945103,293.74241 512.366959,293.552966 513.619996,293.382974 C514.058411,293.323497 514.444362,293.270706 514.774427,293.22521 C514.972237,293.197944 515.107619,293.179147 515.179731,293.169071 C515.64884,293.105142 516.062543,292.634379 516.062543,292.170026 L516.062543,291.481569 C516.062543,291.070631 515.724452,290.732942 515.309446,290.732942 L6.59676028,290.732942 C6.18363022,290.732942 5.84366406,291.071261 5.84366406,291.481569 Z M3.8162668,291.481569 C3.8162668,289.949352 5.06612677,288.705544 6.59676028,288.705544 L515.309446,288.705544 C516.843614,288.705544 518.08994,289.950391 518.08994,291.481569 L518.08994,292.170026 C518.08994,293.651152 516.924403,294.977446 515.456964,295.177421 C515.386456,295.187278 515.250381,295.206171 515.051266,295.233618 C514.719789,295.279308 514.332409,295.332294 513.892544,295.391968 C512.63621,295.562407 511.210975,295.752301 509.644182,295.956788 C505.167867,296.541005 500.453663,297.125215 495.720138,297.670534 C492.582751,298.031972 489.539234,298.364232 486.624498,298.661089 C478.485625,299.490009 471.703522,300.008704 466.720863,300.136512 C445.328311,300.685242 416.070164,301.072419 380.916106,301.320502 C340.742337,301.604008 298.639155,301.677612 262.892856,301.63532 C261.135994,301.633241 259.590824,301.631014 258.270436,301.628787 C256.728926,301.625966 256.728926,301.625966 256.660104,301.625818 C255.402783,301.623561 254.732067,301.622229 253.962406,301.62059 C251.763441,301.615906 249.212673,301.609697 246.339416,301.601765 C238.130218,301.579103 228.982868,301.547195 219.131892,301.50447 C190.986105,301.382398 162.840256,301.198204 136.570383,300.939314 C102.661237,300.605139 74.4271326,300.170372 53.761939,299.622234 C48.9283179,299.494023 42.312399,299.016948 34.3551695,298.263747 C31.6193067,298.004781 28.7656129,297.716845 25.824735,297.404897 C21.1875569,296.913015 16.5599326,296.386051 12.1591347,295.859081 C10.6187866,295.674634 9.21673525,295.50335 7.98015922,295.349617 C7.54722628,295.295794 7.16586013,295.248004 6.83945864,295.206795 C6.50939686,295.165004 6.50939686,295.165004 6.44244218,295.156432 C4.97494564,294.972208 3.8162668,293.650776 3.8162668,292.170026 L3.8162668,291.481569 Z"/>
    <path fill="#FFFFFF" d="M2,289.719243 L519.883674,289.719243 L519.789112,291.132779 C519.711091,292.299039 518.716327,293.373863 517.561917,293.534206 L514.695404,293.932352 L5.53745679,293.932352 L4.28925344,293.672297 C3.15517924,293.43602 2.17263222,292.299781 2.09456242,291.132779 L2,289.719243 Z"/>
    <path fill="#879CAE" fill-rule="nonzero" d="M3.08377858,290.732942 L3.10600033,291.065116 C3.15378106,291.779351 3.80836454,292.536641 4.49601136,292.679908 L5.64193389,292.918654 L514.625341,292.918654 L517.422457,292.530146 C518.099242,292.436144 518.731597,291.75388 518.777674,291.065116 L518.799895,290.732942 L3.08377858,290.732942 Z M520.967453,288.705544 L520.800549,291.200442 C520.690474,292.845867 519.331766,294.311811 517.701376,294.538266 L514.834864,294.936412 L5.53745679,294.946051 L5.33069887,294.924741 L4.08249552,294.664686 C2.50149563,294.335295 1.1914491,292.819698 1.08312452,291.200442 L0.91622142,288.705544 L520.967453,288.705544 Z"/>
    <rect width="97.003" height="4.213" x="212.361" y="289.719" fill="#FFFFFF" rx=".589"/>
    <path fill="#879CAE" fill-rule="nonzero" d="M213.374462,292.918654 L308.350513,292.918654 L308.350513,290.732942 L213.374462,290.732942 L213.374462,292.918654 Z M211.347065,290.305058 C211.347065,289.418027 212.065875,288.705544 212.955066,288.705544 L308.769909,288.705544 C309.654635,288.705544 310.37791,289.419557 310.37791,290.305058 L310.37791,293.346537 C310.37791,294.233569 309.6591,294.946051 308.769909,294.946051 L212.955066,294.946051 C212.07034,294.946051 211.347065,294.232038 211.347065,293.346537 L211.347065,290.305058 Z"/>
  </g>
</svg>
